<svg width="24.000000" height="24.000000" viewBox="0 0 24 24" fill="none" xmlns="http://www.w3.org/2000/svg" xmlns:xlink="http://www.w3.org/1999/xlink">
	<desc>
			Created with Pixso.
	</desc>
	<defs>
		<clipPath id="clip41_320">
			<rect id="basil:instagram-outline" width="24.000000" height="24.000000" fill="white" fill-opacity="0"/>
		</clipPath>
	</defs>
	<rect id="basil:instagram-outline" width="24.000000" height="24.000000" fill="#FFFFFF" fill-opacity="0"/>
	<g clip-path="url(#clip41_320)">
		<path id="Vector" d="M16 7C16 6.73 16.1 6.48 16.29 6.29C16.48 6.1 16.73 6 17 6C17.26 6 17.51 6.1 17.7 6.29C17.89 6.48 18 6.73 18 7C18 7.26 17.89 7.51 17.7 7.7C17.51 7.89 17.26 8 17 8C16.73 8 16.48 7.89 16.29 7.7C16.1 7.51 16 7.26 16 7Z" fill="#CEAAD0" fill-opacity="1.000000" fill-rule="nonzero"/>
		<path id="Vector" d="M12 7.25C10.74 7.25 9.53 7.75 8.64 8.64C7.75 9.53 7.25 10.74 7.25 12C7.25 13.25 7.75 14.46 8.64 15.35C9.53 16.25 10.74 16.75 12 16.75C13.25 16.75 14.46 16.25 15.35 15.35C16.24 14.46 16.75 13.25 16.75 12C16.75 10.74 16.24 9.53 15.35 8.64C14.46 7.75 13.25 7.25 12 7.25ZM8.75 12C8.75 11.13 9.09 10.31 9.7 9.7C10.31 9.09 11.13 8.75 12 8.75C12.86 8.75 13.68 9.09 14.29 9.7C14.9 10.31 15.25 11.13 15.25 12C15.25 12.86 14.9 13.68 14.29 14.29C13.68 14.9 12.86 15.25 12 15.25C11.13 15.25 10.31 14.9 9.7 14.29C9.09 13.68 8.75 12.86 8.75 12Z" fill="#CEAAD0" fill-opacity="1.000000" fill-rule="evenodd"/>
		<path id="Vector" d="M17.25 2.83C13.76 2.44 10.23 2.44 6.74 2.83C4.72 3.05 3.1 4.64 2.86 6.66C2.45 10.2 2.45 13.79 2.86 17.33C3.1 19.35 4.72 20.94 6.74 21.16C10.23 21.55 13.76 21.55 17.25 21.16C19.27 20.94 20.89 19.35 21.13 17.33C21.54 13.79 21.54 10.2 21.13 6.66C20.89 4.64 19.27 3.05 17.25 2.83ZM6.9 4.32C10.29 3.94 13.7 3.94 17.09 4.32C18.42 4.47 19.48 5.52 19.64 6.83C20.04 10.26 20.04 13.73 19.64 17.15C19.56 17.8 19.26 18.4 18.8 18.86C18.34 19.31 17.73 19.6 17.09 19.67C13.7 20.05 10.29 20.05 6.9 19.67C6.26 19.6 5.65 19.31 5.19 18.86C4.73 18.4 4.43 17.8 4.35 17.15C3.95 13.73 3.95 10.26 4.35 6.83C4.43 6.19 4.73 5.59 5.19 5.13C5.65 4.68 6.26 4.39 6.9 4.32Z" fill="#CEAAD0" fill-opacity="1.000000" fill-rule="evenodd"/>
	</g>
</svg>
