<svg width="28.325928" height="28.372070" viewBox="0 0 28.3259 28.3721" fill="none" xmlns="http://www.w3.org/2000/svg" xmlns:xlink="http://www.w3.org/1999/xlink">
	<desc>
			Created with Pixso.
	</desc>
	<defs/>
	<path id="Vector" d="M20.16 6.68C20.16 6.29 20.32 5.9 20.6 5.62C20.88 5.34 21.26 5.18 21.66 5.18C22.06 5.18 22.44 5.34 22.72 5.62C23 5.9 23.16 6.29 23.16 6.68C23.16 7.08 23 7.46 22.72 7.74C22.44 8.02 22.06 8.18 21.66 8.18C21.26 8.18 20.88 8.02 20.6 7.74C20.32 7.46 20.16 7.08 20.16 6.68Z" fill="#FFF9F4" fill-opacity="1.000000" fill-rule="nonzero"/>
	<path id="Vector" d="M14.16 7.06C12.27 7.06 10.46 7.81 9.12 9.14C7.78 10.48 7.03 12.29 7.03 14.18C7.03 16.07 7.78 17.88 9.12 19.22C10.46 20.56 12.27 21.31 14.16 21.31C16.05 21.31 17.86 20.56 19.2 19.22C20.53 17.88 21.28 16.07 21.28 14.18C21.28 12.29 20.53 10.48 19.2 9.14C17.86 7.81 16.05 7.06 14.16 7.06ZM9.28 14.18C9.28 12.89 9.8 11.65 10.71 10.74C11.62 9.82 12.86 9.31 14.16 9.31C15.45 9.31 16.69 9.82 17.61 10.74C18.52 11.65 19.03 12.89 19.03 14.18C19.03 15.48 18.52 16.72 17.61 17.63C16.69 18.54 15.45 19.06 14.16 19.06C12.86 19.06 11.62 18.54 10.71 17.63C9.8 16.72 9.28 15.48 9.28 14.18Z" fill="#FFF9F4" fill-opacity="1.000000" fill-rule="evenodd"/>
	<path id="Vector" d="M22.04 0.43C16.8 -0.15 11.51 -0.15 6.27 0.43C3.25 0.77 0.82 3.15 0.46 6.18C-0.16 11.5 -0.16 16.87 0.46 22.18C0.82 25.22 3.25 27.59 6.27 27.93C11.51 28.51 16.8 28.51 22.04 27.93C25.06 27.59 27.5 25.22 27.85 22.18C28.48 16.87 28.48 11.5 27.85 6.18C27.5 3.15 25.06 0.77 22.04 0.43ZM6.52 2.67C11.6 2.1 16.72 2.1 21.8 2.67C23.79 2.89 25.39 4.46 25.62 6.44C26.22 11.58 26.22 16.78 25.62 21.92C25.5 22.89 25.06 23.79 24.36 24.47C23.67 25.16 22.77 25.59 21.8 25.7C16.72 26.26 11.6 26.26 6.52 25.7C5.55 25.59 4.65 25.16 3.95 24.47C3.26 23.79 2.82 22.89 2.69 21.92C2.09 16.78 2.09 11.58 2.69 6.44C2.82 5.47 3.26 4.58 3.95 3.89C4.65 3.2 5.55 2.77 6.52 2.67Z" fill="#FFF9F4" fill-opacity="1.000000" fill-rule="evenodd"/>
</svg>
