<svg width="170.000000" height="21.000000" viewBox="0 0 170 21" fill="none" xmlns="http://www.w3.org/2000/svg" xmlns:xlink="http://www.w3.org/1999/xlink">
	<desc>
			Created with Pixso.
	</desc>
	<defs>
		<clipPath id="clip1_27">
			<rect id="IMAGE" rx="0.000000" width="169.000000" height="20.000000" transform="translate(0.500000 0.500000)" fill="white" fill-opacity="0"/>
		</clipPath>
	</defs>
	<g clip-path="url(#clip1_27)">
		<path id="Vector" d="M10.57 20.94C9.06 20.94 7.67 20.68 6.38 20.17C5.1 19.63 3.98 18.9 3.01 17.97C2.06 17.01 1.32 15.9 0.78 14.62C0.26 13.35 0 11.97 0 10.48C0 8.98 0.26 7.6 0.78 6.34C1.32 5.06 2.06 3.96 3.01 3.02C3.98 2.09 5.09 1.36 6.36 0.82C7.64 0.29 9.03 0.02 10.51 0.02C12.08 0.02 13.48 0.28 14.73 0.8C15.97 1.29 17.07 1.99 18.02 2.88L14.67 6.31C14.21 5.78 13.63 5.36 12.94 5.05C12.25 4.75 11.44 4.6 10.51 4.6C9.71 4.6 8.98 4.73 8.31 5C7.66 5.26 7.09 5.66 6.61 6.2C6.12 6.71 5.74 7.33 5.46 8.05C5.2 8.78 5.07 9.59 5.07 10.48C5.07 11.38 5.2 12.19 5.46 12.91C5.74 13.63 6.12 14.26 6.61 14.8C7.09 15.31 7.66 15.71 8.31 16C8.98 16.26 9.71 16.4 10.51 16.4C11.44 16.4 12.26 16.25 12.97 15.97C13.68 15.66 14.28 15.23 14.78 14.68L18.13 18.11C17.16 19 16.07 19.7 14.84 20.2C13.63 20.69 12.21 20.94 10.57 20.94Z" fill="#000000" fill-opacity="1.000000" fill-rule="nonzero"/>
		<path id="Vector" d="M18.35 20.62L26.02 0.37L30.85 0.37L38.44 20.62L33.22 20.62L27.5 3.6L29.32 3.6L23.46 20.62L18.35 20.62Z" fill="#000000" fill-opacity="1.000000" fill-rule="nonzero"/>
		<path id="Vector" d="M40.29 20.62L40.29 0.37L45.29 0.37L45.29 20.62L40.29 20.62ZM44.25 20.62L44.25 16.22L53.8 16.22L53.8 20.62L44.25 20.62Z" fill="#000000" fill-opacity="1.000000" fill-rule="nonzero"/>
		<path id="Vector" d="M56.12 20.62L56.12 0.37L61.12 0.37L61.12 20.62L56.12 20.62Z" fill="#000000" fill-opacity="1.000000" fill-rule="nonzero"/>
		<path id="Vector" d="M64.62 20.62L64.62 0.37L69.62 0.37L69.62 20.62L64.62 20.62ZM68.59 13.05L68.59 8.74L78.38 8.74L78.38 13.05L68.59 13.05ZM68.59 4.68L68.59 0.37L78.83 0.37L78.83 4.68L68.59 4.68Z" fill="#000000" fill-opacity="1.000000" fill-rule="nonzero"/>
		<path id="Vector" d="M90.84 21C89.32 21 87.92 20.73 86.63 20.2C85.35 19.66 84.22 18.92 83.26 17.97C82.31 17.01 81.56 15.9 81.02 14.62C80.48 13.33 80.21 11.94 80.21 10.45C80.21 8.97 80.47 7.6 81 6.34C81.53 5.06 82.28 3.95 83.23 3C84.18 2.04 85.29 1.31 86.58 0.8C87.86 0.26 89.26 0 90.79 0C92.31 0 93.72 0.26 95 0.8C96.29 1.31 97.4 2.04 98.35 3C99.3 3.95 100.03 5.06 100.56 6.34C101.09 7.61 101.36 9 101.36 10.48C101.36 11.97 101.09 13.35 100.56 14.62C100.03 15.9 99.3 17.02 98.35 18C97.4 18.95 96.29 19.69 95 20.22C93.74 20.74 92.35 21 90.84 21ZM90.79 16.42C91.91 16.42 92.87 16.18 93.69 15.68C94.51 15.19 95.14 14.49 95.59 13.6C96.03 12.7 96.26 11.65 96.26 10.45C96.26 9.58 96.13 8.78 95.87 8.05C95.63 7.33 95.26 6.71 94.78 6.2C94.3 5.66 93.72 5.25 93.05 4.97C92.38 4.68 91.63 4.54 90.79 4.54C89.67 4.54 88.71 4.79 87.89 5.28C87.07 5.76 86.44 6.44 85.99 7.34C85.54 8.23 85.32 9.27 85.32 10.45C85.32 11.37 85.44 12.2 85.68 12.94C85.94 13.66 86.32 14.29 86.8 14.82C87.28 15.34 87.86 15.74 88.53 16.02C89.2 16.29 89.95 16.42 90.79 16.42Z" fill="#000000" fill-opacity="1.000000" fill-rule="nonzero"/>
		<path id="Vector" d="M107.82 12.42L107.82 8.77L111.59 8.77C112.41 8.77 113.03 8.57 113.46 8.17C113.91 7.75 114.13 7.19 114.13 6.48C114.13 5.8 113.91 5.24 113.46 4.82C113.03 4.39 112.41 4.17 111.59 4.17L107.82 4.17L107.82 0.37L112.29 0.37C113.63 0.37 114.8 0.62 115.8 1.14C116.83 1.65 117.63 2.36 118.2 3.25C118.78 4.15 119.07 5.2 119.07 6.4C119.07 7.6 118.77 8.65 118.18 9.57C117.6 10.46 116.79 11.17 115.75 11.68C114.71 12.18 113.49 12.42 112.09 12.42L107.82 12.42ZM103.86 20.62L103.86 0.37L108.86 0.37L108.86 20.62L103.86 20.62ZM114.58 20.62L108.83 11.94L113.32 10.82L120.35 20.62L114.58 20.62Z" fill="#000000" fill-opacity="1.000000" fill-rule="nonzero"/>
		<path id="Vector" d="M121.98 20.62L121.98 0.37L125.47 0.37L126.98 4.51L126.98 20.62L121.98 20.62ZM135.63 20.62L124.08 5.6L125.47 0.37L137.05 15.4L135.63 20.62ZM135.63 20.62L134.34 16.37L134.34 0.37L139.34 0.37L139.34 20.62L135.63 20.62Z" fill="#000000" fill-opacity="1.000000" fill-rule="nonzero"/>
		<path id="Vector" d="M142.85 20.62L142.85 0.37L147.85 0.37L147.85 20.62L142.85 20.62Z" fill="#000000" fill-opacity="1.000000" fill-rule="nonzero"/>
		<path id="Vector" d="M149.91 20.62L157.58 0.37L162.41 0.37L170 20.62L164.78 20.62L159.06 3.6L160.87 3.6L155.01 20.62L149.91 20.62Z" fill="#000000" fill-opacity="1.000000" fill-rule="nonzero"/>
	</g>
</svg>
